<svg id="Layer_2" data-name="Layer 2" xmlns="http://www.w3.org/2000/svg" viewBox="0 0 29.44 10.96">
<link href="/output.css" rel="stylesheet">

<path d="M29.43,4.39,22,.29a.26.26,0,0,0-.39.23V8.73A.26.26,0,0,0,22,9l7.41-4.1A.27.27,0,0,0,29.43,4.39Z" transform="translate(-0.13 0.22)" style="fill:#08d9d6"/><path d="M.27,4.86,7.67,9a.26.26,0,0,0,.39-.23V.52A.26.26,0,0,0,7.67.29L.27,4.39A.27.27,0,0,0,.27,4.86Z" transform="translate(-0.13 0.22)" style="fill:#ff2e63"/>
<text transform="translate(8.79 8.32)" style="font-size:9.726314544677734px;fill:#fff;font-family:RobotoMono-Regular, Roboto Mono">EC</text></svg>